<svg width="1125" height="307" viewBox="0 0 1125 307" version="1.1" xmlns="http://www.w3.org/2000/svg" xmlns:xlink="http://www.w3.org/1999/xlink">
<g id="Canvas" fill="none">
<g id="Rectangle 2">
<rect width="375" height="307" fill="white"/>
</g>
<g id="Shape">
<path fill-rule="evenodd" clip-rule="evenodd" d="M 19.5 56C 8.63571 56 0 47.32 0 36.4C 0 21.84 19.5 0 19.5 0C 19.5 0 39 21.56 39 36.4C 39 47.32 30.3643 56 19.5 56ZM 19.5 29.4C 15.6 29.4 12.5357 32.48 12.5357 36.4C 12.5357 40.32 15.6 43.4 19.5 43.4C 23.4 43.4 26.4643 40.32 26.4643 36.4C 26.4643 32.48 23.4 29.4 19.5 29.4Z" transform="translate(214 295.012) scale(1 -1)" fill="#222222"/>
</g>
<g id="Rectangle 2_2">
<rect width="375" height="307" transform="translate(750 0)" fill="white"/>
</g>
<g id="Shape_2">
<path fill-rule="evenodd" clip-rule="evenodd" d="M 19.5 56C 8.63571 56 0 47.32 0 36.4C 0 21.84 19.5 0 19.5 0C 19.5 0 39 21.56 39 36.4C 39 47.32 30.3643 56 19.5 56ZM 19.5 29.4C 15.6 29.4 12.5357 32.48 12.5357 36.4C 12.5357 40.32 15.6 43.4 19.5 43.4C 23.4 43.4 26.4643 40.32 26.4643 36.4C 26.4643 32.48 23.4 29.4 19.5 29.4Z" transform="translate(993 295) scale(1 -1)" fill="#222222"/>
</g>
<g id="Rectangle 2_3">
<rect width="375" height="307" transform="translate(375 0)" fill="white"/>
</g>
<g id="Vector">
<path d="M 0 93.5008C 0 93.5008 39.133 73.229 62.5 57.5008C 80.7721 45.2019 90.0179 35.7199 108 23.0008C 141.224 -0.499165 270.5 0.000838041 355.5 0.000832973C 444.5 0.000832973 584.683 0.000801086 630 23.0008C 661.415 38.9451 675.153 54.9387 707 70.0008C 733.527 82.5468 777.5 96.0008 777.5 96.0008" stroke-width="3" stroke-dasharray="3 3" transform="translate(234.5 198.999)" stroke="#CCCCCC"/>
</g>
<g id="Vector_2">
<path d="M 5.5 3L 0 3L 7.5 12C 7.5 12 11.3751 13.7881 14 14.5C 18.7264 15.7818 26.5 15.5 26.5 15.5L 14 25.5L 21 25.5L 39 15.5L 52.5 15.5C 52.5 15.5 55.9486 14.0011 56.5 12C 57.4236 8.64838 49.5 6.5 49.5 6.5L 10 7.5L 5.5 3Z" transform="translate(433 186)" fill="#222222"/>
<path d="M 35 5L 23.5 5L 15.5 0L 21.5 0L 35 5Z" transform="translate(433 186)" fill="#222222"/>
</g>
</g>
</svg>

