        <svg width="25" height="25" viewBox="0 0 25 25" version="1.1" xmlns="http://www.w3.org/2000/svg" xmlns:xlink="http://www.w3.org/1999/xlink">
          <g id="Canvas" fill="none">
          <g id="Vector 2">
          <path d="M 11.4553 22.0343L 8.14397 23L 8.14397 21.1565L 10.1128 19.2252L 10.1128 13.7824L 0 17.1183L 0 14.4847L 10.1128 8.51527L 10.1128 1.49237C 10.1128 1.49237 10.2023 5.35809e-06 11.4553 0C 12.7082 -5.35805e-06 12.7082 1.49237 12.7082 1.49237L 12.7082 8.51527L 23 14.4847L 23 17.1183L 12.7082 13.7824L 12.7082 19.2252L 14.9455 21.1565L 14.9455 23L 11.4553 22.0343Z" transform="translate(1 1)" fill="white"/>
          <path d="M 8.14397 23L 11.4553 22.0343L 14.9455 23L 14.9455 21.1565L 12.7082 19.2252L 12.7082 13.7824L 23 17.1183L 23 14.4847L 12.7082 8.51527L 12.7082 1.49237C 12.7082 1.49237 12.7082 -5.35805e-06 11.4553 0C 10.2023 5.35809e-06 10.1128 1.49237 10.1128 1.49237L 10.1128 8.51527L 0 14.4847L 0 17.1183L 10.1128 13.7824L 10.1128 19.2252L 8.14397 21.1565L 8.14397 23Z" transform="translate(1 1)" stroke="white"/>
          </g>
          </g>
          </svg>